<svg xmlns="http://www.w3.org/2000/svg" width="33" height="33" viewBox="0 0 33 33" fill="none">
    <g clip-path="url(#clip0_5_1211)">
        <path
            d="M25.3929 0.5H7.10714C3.32005 0.5 0.25 3.57005 0.25 7.35714V25.6429C0.25 29.43 3.32005 32.5 7.10714 32.5H25.3929C29.18 32.5 32.25 29.43 32.25 25.6429V7.35714C32.25 3.57005 29.18 0.5 25.3929 0.5Z"
            fill="#03AB02" />
        <path fill-rule="evenodd" clip-rule="evenodd"
            d="M23.424 17.0385L22.7054 21.5961H18.9297V32.5H13.8657V21.5961H9.75113V17.0385H13.8657V13.5649C13.8657 9.61337 16.285 7.43066 19.9865 7.43066C21.7595 7.43066 23.6139 7.73861 23.6139 7.73861V11.6187H21.5705C19.5576 11.6187 18.9297 12.8342 18.9297 14.081V17.0385H23.424Z"
            fill="white" />
    </g>
    <defs>
        <clipPath id="clip0_5_1211">
            <rect width="32" height="32" fill="white" transform="translate(0.25 0.5)" />
        </clipPath>
    </defs>
</svg>