<svg xmlns="http://www.w3.org/2000/svg" width="33" height="33" viewBox="0 0 33 33" fill="none">
    <g clip-path="url(#clip0_5_1196)">
        <path
            d="M25.5829 0.5H7.29715C3.51005 0.5 0.440002 3.57005 0.440002 7.35714V25.6429C0.440002 29.43 3.51005 32.5 7.29715 32.5H25.5829C29.37 32.5 32.44 29.43 32.44 25.6429V7.35714C32.44 3.57005 29.37 0.5 25.5829 0.5Z"
            fill="#03AB02" />
        <path
            d="M16.4411 4.86182C13.3095 4.86182 12.9165 4.87563 11.6864 4.93212C10.4588 4.98887 9.6208 5.18502 8.88759 5.47283C8.12915 5.77009 7.48579 6.16774 6.84483 6.81488C6.20339 7.46178 5.8094 8.11111 5.51391 8.87634C5.22802 9.61659 5.03343 10.4626 4.97818 11.7011C4.92316 12.9425 4.90875 13.3394 4.90875 16.5002C4.90875 19.661 4.92268 20.0564 4.97842 21.2979C5.03488 22.5369 5.22923 23.3826 5.51415 24.1226C5.80892 24.8881 6.20291 25.5375 6.84411 26.1843C7.48483 26.8317 8.12819 27.2304 8.88615 27.5276C9.61984 27.8154 10.458 28.0116 11.6854 28.0683C12.9154 28.1248 13.3082 28.1386 16.4398 28.1386C19.5718 28.1386 19.9635 28.1248 21.1936 28.0683C22.4213 28.0116 23.2601 27.8154 23.9938 27.5276C24.752 27.2304 25.3944 26.8317 26.0351 26.1843C26.6766 25.5375 27.0705 24.8881 27.3661 24.1229C27.6495 23.3826 27.8441 22.5367 27.9018 21.2981C27.957 20.0568 27.9714 19.661 27.9714 16.5002C27.9714 13.3394 27.957 12.9427 27.9018 11.7013C27.8441 10.4623 27.6495 9.61659 27.3661 8.87658C27.0705 8.11111 26.6766 7.46178 26.0351 6.81488C25.3937 6.1675 24.7522 5.76985 23.9931 5.47283C23.2579 5.18502 22.4195 4.98887 21.1919 4.93212C19.9619 4.87563 19.5703 4.86182 16.4376 4.86182H16.4411ZM15.4067 6.95915C15.7137 6.95866 16.0563 6.95915 16.4411 6.95915C19.5201 6.95915 19.885 6.97031 21.1009 7.02607C22.2251 7.07797 22.8354 7.26757 23.2418 7.42687C23.78 7.63782 24.1637 7.88998 24.5671 8.29733C24.9706 8.70467 25.2205 9.09262 25.4299 9.63575C25.5878 10.0455 25.7759 10.6614 25.8271 11.7961C25.8823 13.0231 25.8944 13.3915 25.8944 16.4976C25.8944 19.6035 25.8823 19.9721 25.8271 21.1989C25.7757 22.3337 25.5878 22.9496 25.4299 23.3594C25.2209 23.9025 24.9706 24.2892 24.5671 24.6963C24.1634 25.1036 23.7802 25.3559 23.2418 25.5668C22.8359 25.7268 22.2251 25.916 21.1009 25.9679C19.8853 26.0236 19.5201 26.0357 16.4411 26.0357C13.3621 26.0357 12.9971 26.0236 11.7815 25.9679C10.6572 25.9154 10.047 25.7258 9.64026 25.5666C9.10212 25.3556 8.71774 25.1034 8.31414 24.6961C7.91054 24.2888 7.66068 23.9018 7.4512 23.3584C7.29336 22.9487 7.10526 22.3328 7.05408 21.198C6.99883 19.9712 6.98778 19.6026 6.98778 16.4946C6.98778 13.3867 6.99883 13.0201 7.05408 11.7932C7.1055 10.6585 7.29336 10.0426 7.4512 9.63235C7.6602 9.08922 7.91054 8.70128 8.31414 8.29393C8.71774 7.88658 9.10212 7.63442 9.64026 7.42299C10.0467 7.26296 10.6572 7.07384 11.7815 7.0217C12.8453 6.97321 13.2575 6.95866 15.4067 6.95624V6.95915ZM22.5966 8.89161C21.8327 8.89161 21.2128 9.51644 21.2128 10.2877C21.2128 11.0588 21.8327 11.6843 22.5966 11.6843C23.3606 11.6843 23.9803 11.0588 23.9803 10.2877C23.9803 9.5167 23.3606 8.89161 22.5966 8.89161ZM16.4411 10.5234C13.1709 10.5234 10.5193 13.1995 10.5193 16.5002C10.5193 19.8009 13.1709 22.4759 16.4411 22.4759C19.7115 22.4759 22.3622 19.8009 22.3622 16.5002C22.3622 13.1995 19.7115 10.5234 16.4411 10.5234ZM16.4411 12.6208C18.5639 12.6208 20.285 14.3576 20.285 16.5002C20.285 18.6427 18.5639 20.3797 16.4411 20.3797C14.3182 20.3797 12.5974 18.6427 12.5974 16.5002C12.5974 14.3576 14.3182 12.6208 16.4411 12.6208Z"
            fill="white" />
    </g>
    <defs>
        <clipPath id="clip0_5_1196">
            <rect width="32" height="32" fill="white" transform="translate(0.440002 0.5)" />
        </clipPath>
    </defs>
</svg>