<svg xmlns="http://www.w3.org/2000/svg" width="33" height="33" viewBox="0 0 33 33" fill="none">
    <g clip-path="url(#clip0_5_1201)">
        <path
            d="M25.5229 0.5H7.23715C3.45005 0.5 0.380005 3.57005 0.380005 7.35714V25.6429C0.380005 29.43 3.45005 32.5 7.23715 32.5H25.5229C29.31 32.5 32.38 29.43 32.38 25.6429V7.35714C32.38 3.57005 29.31 0.5 25.5229 0.5Z"
            fill="#03AB02" />
        <path fill-rule="evenodd" clip-rule="evenodd"
            d="M6.59261 16.4708C11.9726 14.2025 15.56 12.7069 17.355 11.9844C22.4801 9.92144 23.1918 9.62233 23.886 9.61042C24.0385 9.6079 24.411 9.6708 24.7014 9.917C24.9919 10.1632 25.0791 10.3227 25.1037 10.4617C25.1283 10.6007 25.1257 11.0331 25.1014 11.2805C24.8237 14.1045 23.7684 20.6231 23.1569 23.786C22.8983 25.1244 22.3889 25.5732 21.8958 25.6171C20.824 25.7126 20.0103 24.9316 18.9722 24.2732C17.348 23.2428 16.8065 22.8625 15.2298 21.857C13.4078 20.695 14.1583 20.2915 15.1966 19.2479C15.4684 18.9747 19.9703 14.8314 20.0372 14.4511C20.0954 14.1193 20.1167 14.0764 19.967 13.9267C19.8173 13.7771 19.6383 13.7958 19.5233 13.821C19.3605 13.8568 16.8807 15.4406 12.084 18.5724C11.3475 19.0618 10.6804 19.3003 10.0827 19.2879C9.42378 19.274 8.15626 18.9273 7.214 18.6308C6.05826 18.2673 5.13971 18.0751 5.2197 17.4576C5.26136 17.136 5.719 16.8071 6.59261 16.4708Z"
            fill="white" />
    </g>
    <defs>
        <clipPath id="clip0_5_1201">
            <rect width="32" height="32" fill="white" transform="translate(0.380005 0.5)" />
        </clipPath>
    </defs>
</svg>