<svg xmlns="http://www.w3.org/2000/svg" width="33" height="33" viewBox="0 0 33 33" fill="none">
    <g clip-path="url(#clip0_5_1227)">
        <path
            d="M25.2029 0.5H6.9172C3.13011 0.5 0.0600586 3.57005 0.0600586 7.35714V25.6429C0.0600586 29.43 3.13011 32.5 6.9172 32.5H25.2029C28.99 32.5 32.0601 29.43 32.0601 25.6429V7.35714C32.0601 3.57005 28.99 0.5 25.2029 0.5Z"
            fill="#03AB02" />
        <path
            d="M22.2283 14.3114C23.6236 15.2814 25.333 15.8521 27.1793 15.8521V12.3974C26.8298 12.3974 26.4813 12.3619 26.1395 12.2915V15.0109C24.2934 15.0109 22.5842 14.4402 21.1885 13.4703V20.5206C21.1885 24.0474 18.2484 26.9064 14.622 26.9064C13.2689 26.9064 12.011 26.5086 10.9663 25.8263C12.1588 27.012 13.8217 27.7474 15.6614 27.7474C19.2882 27.7474 22.2284 24.8886 22.2284 21.3615L22.2283 14.3114ZM23.5109 10.8259C22.7978 10.0683 22.3295 9.08927 22.2283 8.00682V7.5625H21.2429C21.491 8.93823 22.337 10.1136 23.5109 10.8259ZM13.2601 23.1199C12.8617 22.6119 12.6463 21.9904 12.6473 21.3514C12.6473 19.7384 13.9921 18.4305 15.6511 18.4305C15.9603 18.4303 16.2676 18.4765 16.5623 18.5673V15.0353C16.218 14.9895 15.8705 14.9699 15.523 14.9771V17.7262C15.2282 17.6353 14.9207 17.5891 14.6114 17.5894C12.9524 17.5894 11.6076 18.8971 11.6076 20.5104C11.6076 21.6512 12.2798 22.6387 13.2601 23.1199Z"
            fill="#03AB02" />
        <path
            d="M21.1895 13.4703C22.5853 14.4402 24.2943 15.0109 26.1404 15.0109V12.2914C25.11 12.0779 24.1978 11.5543 23.5118 10.8259C22.3379 10.1135 21.4919 8.93815 21.2439 7.5625H18.6559V21.3614C18.65 22.9701 17.3076 24.2726 15.652 24.2726C14.6765 24.2726 13.8098 23.8205 13.2609 23.1198C12.2807 22.6387 11.6085 21.6511 11.6085 20.5105C11.6085 18.8974 12.9533 17.5895 14.6123 17.5895C14.9302 17.5895 15.2365 17.6376 15.5239 17.7263V14.9771C11.9611 15.0488 9.09576 17.8798 9.09576 21.3615C9.09576 23.0995 9.80927 24.6751 10.9674 25.8264C12.0122 26.5086 13.2698 26.9065 14.623 26.9065C18.2495 26.9065 21.1896 24.0474 21.1896 20.5206L21.1895 13.4703Z"
            fill="white" />
        <path
            d="M26.14 12.2921V11.5569C25.2107 11.5583 24.2997 11.3052 23.5114 10.8267C24.2092 11.5697 25.1283 12.0819 26.14 12.2921ZM21.2434 7.56314C21.2197 7.43169 21.2016 7.29937 21.189 7.16649V6.72217H17.6155V20.5212C17.6099 22.1298 16.2674 23.4323 14.6117 23.4323C14.1424 23.433 13.6795 23.3262 13.2603 23.1206C13.8092 23.8211 14.676 24.2732 15.6515 24.2732C17.3069 24.2732 18.6496 22.9708 18.6554 21.3621V7.56321L21.2434 7.56314ZM15.5236 14.9778V14.195C15.225 14.1554 14.924 14.1355 14.6226 14.1356C10.9956 14.1356 8.0556 16.9946 8.0556 20.5212C8.0556 22.7322 9.21108 24.6807 10.967 25.8269C9.80887 24.6757 9.09536 23.1001 9.09536 21.3621C9.09536 17.8804 11.9606 15.0494 15.5236 14.9778Z"
            fill="white" />
    </g>
    <defs>
        <clipPath id="clip0_5_1227">
            <rect width="32" height="32" fill="white" transform="translate(0.0600586 0.5)" />
        </clipPath>
    </defs>
</svg>