<svg xmlns="http://www.w3.org/2000/svg" width="33" height="33" viewBox="0 0 33 33" fill="none">
    <g clip-path="url(#clip0_5_1206)">
        <path
            d="M25.4529 0.5H7.1672C3.38011 0.5 0.310059 3.57005 0.310059 7.35714V25.6429C0.310059 29.43 3.38011 32.5 7.1672 32.5H25.4529C29.24 32.5 32.3101 29.43 32.3101 25.6429V7.35714C32.3101 3.57005 29.24 0.5 25.4529 0.5Z"
            fill="#03AB02" />
        <path
            d="M17.29 24.4047C9.79391 24.4047 5.51836 19.2194 5.34021 10.5913H9.09504C9.21838 16.9241 11.9865 19.6066 14.1791 20.1597V10.5913H17.7149V16.053C19.88 15.818 22.1546 13.329 22.9221 10.5913H26.4577C25.8685 13.9652 23.4017 16.454 21.6477 17.4772C23.4017 18.3069 26.2112 20.4777 27.2801 24.4047H23.388C22.5521 21.7775 20.4693 19.7449 17.7149 19.4684V24.4047H17.29Z"
            fill="white" />
    </g>
    <defs>
        <clipPath id="clip0_5_1206">
            <rect width="32" height="32" fill="white" transform="translate(0.310059 0.5)" />
        </clipPath>
    </defs>
</svg>