<svg xmlns="http://www.w3.org/2000/svg" width="32" height="33" viewBox="0 0 32 33" fill="none">
    <g clip-path="url(#clip0_5_1234)">
        <path
            d="M25.1429 0.5H6.85714C3.07005 0.5 0 3.57005 0 7.35714V25.6429C0 29.43 3.07005 32.5 6.85714 32.5H25.1429C28.93 32.5 32 29.43 32 25.6429V7.35714C32 3.57005 28.93 0.5 25.1429 0.5Z"
            fill="#03AB02" />
        <path
            d="M19.7801 17.7545C19.374 17.5103 18.8431 17.2403 18.3641 17.4377C17.9945 17.5883 17.7603 18.1647 17.5208 18.4555C17.3959 18.6061 17.2502 18.6321 17.0627 18.5542C15.678 18.0037 14.6214 17.0845 13.8561 15.8121C13.7259 15.6147 13.752 15.4589 13.9081 15.2771C14.1371 15.007 14.4287 14.7006 14.4912 14.3319C14.5536 13.9684 14.3818 13.5426 14.2308 13.2154C14.0383 12.7998 13.8196 12.2078 13.4032 11.9741C13.0179 11.756 12.513 11.8806 12.1746 12.1558C11.5864 12.6337 11.3001 13.3867 11.3105 14.1294C11.3105 14.3423 11.3365 14.55 11.3886 14.7578C11.5083 15.246 11.7322 15.7082 11.9924 16.1393C12.1851 16.4665 12.3932 16.7884 12.6224 17.0948C13.3616 18.0972 14.283 18.9697 15.35 19.6189C15.881 19.946 16.4537 20.2317 17.0523 20.4238C17.7186 20.642 18.3121 20.8705 19.0305 20.7355C19.7852 20.5953 20.5244 20.1278 20.8264 19.4059C20.915 19.193 20.9565 18.9541 20.9097 18.7255C20.7952 18.2582 20.1601 17.9778 19.7801 17.7545Z"
            fill="white" />
        <path
            d="M16.0937 6.5C10.633 6.5 6.19261 10.93 6.19261 16.3779C6.19261 18.045 6.61947 19.6862 7.43675 21.1507L6 26.5L11.393 25.0614C12.8402 25.8456 14.4591 26.2611 16.0989 26.2611C21.5597 26.2611 26 21.8311 26 16.3832C25.9947 10.93 21.5544 6.5 16.0937 6.5ZM16.0937 24.3914C14.6569 24.3914 13.241 24.0019 11.9917 23.2593L11.6533 23.0567L8.63925 23.8617L9.44091 20.8755L9.23269 20.5327C8.46226 19.2759 8.05622 17.8374 8.05622 16.3779C8.05622 11.9583 11.6585 8.36445 16.0885 8.36445C20.5185 8.36445 24.1208 11.9583 24.1208 16.3779C24.1208 20.7976 20.5237 24.3914 16.0937 24.3914Z"
            fill="white" />
    </g>
    <defs>
        <clipPath id="clip0_5_1234">
            <rect width="32" height="32" fill="white" transform="translate(0 0.5)" />
        </clipPath>
    </defs>
</svg>