<svg xmlns="http://www.w3.org/2000/svg" width="33" height="33" viewBox="0 0 33 33" fill="none">
    <g clip-path="url(#clip0_5_1216)">
        <path
            d="M25.3328 0.5H7.04708C3.25999 0.5 0.189941 3.57005 0.189941 7.35714V25.6429C0.189941 29.43 3.25999 32.5 7.04708 32.5H25.3328C29.1199 32.5 32.1899 29.43 32.1899 25.6429V7.35714C32.1899 3.57005 29.1199 0.5 25.3328 0.5Z"
            fill="#03AB02" />
        <path fill-rule="evenodd" clip-rule="evenodd"
            d="M14.8313 17.3199L8.2164 8.5H13.5497L17.7766 14.1358L22.9895 8.50022H24.6847L18.5357 15.1478L25.5497 24.5H20.2163L15.5903 18.3319L9.88514 24.4997H8.18994L14.8313 17.3199ZM20.8386 23.2555L10.7053 9.74445H12.9275L23.0608 23.2555H20.8386Z"
            fill="white" />
    </g>
    <defs>
        <clipPath id="clip0_5_1216">
            <rect width="32" height="32" fill="white" transform="translate(0.189941 0.5)" />
        </clipPath>
    </defs>
</svg>