<svg xmlns="http://www.w3.org/2000/svg" width="33" height="33" viewBox="0 0 33 33" fill="none">
    <g clip-path="url(#clip0_5_1221)">
        <path
            d="M25.2729 0.5H6.98715C3.20005 0.5 0.130005 3.57005 0.130005 7.35714V25.6429C0.130005 29.43 3.20005 32.5 6.98715 32.5H25.2729C29.06 32.5 32.13 29.43 32.13 25.6429V7.35714C32.13 3.57005 29.06 0.5 25.2729 0.5Z"
            fill="#03AB02" />
        <path
            d="M26.1922 21.7488C25.982 22.862 25.0887 23.7104 23.9854 23.8693C22.2515 24.1345 19.3616 24.4525 16.1039 24.4525C12.8988 24.4525 10.009 24.1345 8.22253 23.8693C7.11914 23.7104 6.22591 22.862 6.01574 21.7488C5.80557 20.5293 5.5954 18.7268 5.5954 16.5002C5.5954 14.2736 5.80557 12.4711 6.01574 11.2517C6.22591 10.1383 7.11914 9.29007 8.22253 9.13103C9.95645 8.86594 12.8463 8.54785 16.1039 8.54785C19.3616 8.54785 22.1989 8.86594 23.9854 9.13103C25.0887 9.29007 25.982 10.1383 26.1922 11.2517C26.4023 12.4711 26.6651 14.2736 26.6651 16.5002C26.6125 18.7268 26.4023 20.5293 26.1922 21.7488Z"
            fill="white" />
        <path d="M13.7885 20.1185V12.6963L20.3271 16.4074L13.7885 20.1185Z" fill="#03AB02" />
    </g>
    <defs>
        <clipPath id="clip0_5_1221">
            <rect width="32" height="32" fill="white" transform="translate(0.130005 0.5)" />
        </clipPath>
    </defs>
</svg>